<svg height="496pt" viewBox="0 0 496 496" width="496pt" xmlns="http://www.w3.org/2000/svg" xmlns:xlink="http://www.w3.org/1999/xlink"><linearGradient id="a" gradientUnits="userSpaceOnUse" x1="248" x2="248" y1="496" y2="0"><stop offset="0" stop-color="#9f2fff"/><stop offset="1" stop-color="#0bb1d3"/></linearGradient><path d="m467.496094 153.496094-51.496094-15.449219v-12.152344c14.488281-10.132812 24-26.910156 24-45.886719v-24.007812c0-30.878906-25.121094-56-56-56s-56 25.121094-56 56v24c0 18.984375 9.511719 35.761719 24 45.886719v12.152343l-45.382812 13.617188c-17.03125-15.230469-38.730469-23.65625-61.769532-23.65625-22.945312 0-43.9375 8.40625-60.160156 22.257812l-40.6875-12.210937v-12.152344c14.488281-10.132812 24-26.910156 24-45.886719v-24.007812c0-30.878906-25.121094-56-56-56s-56 25.121094-56 56v24c0 18.984375 9.511719 35.761719 24 45.886719v12.152343l-51.496094 15.449219c-17.046875 5.121094-28.503906 20.519531-28.503906 38.320313v64.191406h16v-64.191406c0-10.679688 6.871094-19.921875 17.105469-22.984375l51.511719-15.457031c4.65625 6.046874 13.664062 14.632812 27.382812 14.632812s22.726562-8.585938 27.382812-14.632812l32.808594 9.839843c-10.414062 13.097657-17.351562 29.039063-19.457031 46.480469-10.214844-10.855469-24.679687-17.6875-40.734375-17.6875-30.878906 0-56 25.121094-56 56v24c0 18.984375 9.511719 35.761719 24 45.886719v12.152343l-51.496094 15.449219c-17.046875 5.121094-28.503906 20.519531-28.503906 38.320313v72.191406h96c4.40625 0 8 3.59375 8 8v32h288v-32c0-4.40625 3.59375-8 8-8h96v-72.191406c0-17.800782-11.457031-33.199219-28.503906-38.3125l-51.496094-15.449219v-12.152344c14.488281-10.132812 24-26.910156 24-45.886719v-24c0-30.878906-25.121094-56-56-56-15.664062 0-29.824219 6.480469-40 16.878907v-7.582031c0-15.800782-8.585938-30.023438-21.984375-37.542969l34.601563-10.386719c4.65625 6.039062 13.664062 14.625 27.382812 14.625s22.726562-8.585938 27.382812-14.632812l51.519532 15.457031c10.226562 3.0625 17.097656 12.304687 17.097656 22.984375v64.191406h16v-64.191406c0-17.800782-11.457031-33.199219-28.503906-38.3125zm-355.496094-137.496094c22.054688 0 40 17.945312 40 40h-36.6875c-5.082031 0-10.066406-2.0625-13.65625-5.65625l-5.65625-5.65625-5.65625 5.65625c-3.589844 3.59375-8.574219 5.65625-13.65625 5.65625h-4.6875c0-22.054688 17.945312-40 40-40zm16 125.800781c-1.984375 3.0625-7.496094 10.199219-16 10.199219s-14.015625-7.144531-16-10.199219v-8.152343c5.070312 1.511718 10.441406 2.351562 16 2.351562s10.929688-.839844 16-2.359375zm-16-21.800781c-22.054688 0-40-17.945312-40-40v-8h4.6875c6.96875 0 13.625-2 19.3125-5.734375 5.6875 3.734375 12.34375 5.734375 19.3125 5.734375h36.6875v8c0 22.054688-17.945312 40-40 40zm52.097656 172.414062c6.621094 6.496094 15.261719 10.425782 24.488282 11.226563 4.125 10.34375 10.863281 19.367187 19.421874 26.238281v15.761719l-7.558593 1.742187c-1.617188-.726562-3.257813-1.375-4.945313-1.886718l-51.503906-15.449219v-12.152344c8.984375-6.285156 16.023438-15.132812 20.097656-25.480469zm20.246094-5.804687c-3.816406-1.296875-7.335938-3.425781-10.105469-6.464844-4.605469-5.066406-6.773437-11.648437-6.117187-18.527343.863281-9.050782 7.269531-16.632813 15.878906-19.890626v38.273438c0 2.230469.121094 4.433594.34375 6.609375zm49.335938 88.65625-20.0625 12.039063-5.074219-25.367188 5.632812-1.304688zm-9.679688-27.265625v-8.710938c7.414062 3.015626 15.511719 4.710938 24 4.710938s16.585938-1.695312 24-4.710938v8.710938l-24 18zm24 37.328125 14.824219 8.894531-4.59375 13.777344h-20.46875l-4.59375-13.777344zm14.320312-10.0625 19.503907-14.632813 5.632812 1.296876-5.074219 25.367187zm-14.320312-47.265625c-26.472656 0-48-21.527344-48-48v-40h27.160156c17.433594 0 34.398438-4.351562 49.566406-12.664062l6.328126 12.664062h12.945312v40c0 26.472656-21.527344 48-48 48zm-136-120c22.054688 0 40 17.945312 40 40h-4.6875c-5.082031 0-10.066406-2.0625-13.65625-5.65625l-5.65625-5.65625-5.65625 5.65625c-3.589844 3.59375-8.574219 5.65625-13.65625 5.65625h-36.6875c0-22.054688 17.945312-40 40-40zm-40 64v-8h36.6875c6.96875 0 13.625-2 19.3125-5.734375 5.6875 3.734375 12.34375 5.734375 19.3125 5.734375h4.6875v8c0 22.054688-17.945312 40-40 40s-40-17.945312-40-40zm56 53.640625v8.152344c-1.984375 3.070312-7.496094 10.207031-16 10.207031s-14.015625-7.144531-16-10.199219v-8.152343c5.070312 1.511718 10.441406 2.351562 16 2.351562s10.929688-.839844 16-2.359375zm88.839844 154.359375h-40.839844v-64h-16v64h-40v-16c0-13.230469-10.769531-24-24-24h-32v-56h-16v56h-32v-56.191406c0-10.679688 6.871094-19.921875 17.105469-22.984375l51.511719-15.457031c4.65625 6.046874 13.664062 14.632812 27.382812 14.632812s22.726562-8.585938 27.382812-14.632812l30.335938 9.105468-22.3125 5.144532c-25.558594 5.902343-43.40625 28.34375-43.40625 54.566406v9.816406h16v-9.816406c0-18.734375 12.753906-34.757813 31.007812-38.976563l41.9375-9.679687 9.429688 47.167968 16.738281-10.039062 4.734375 14.207031zm16.097656 0 6.222656-56h17.679688l6.222656 56zm229.957031-119.175781c10.234375 3.0625 17.105469 12.304687 17.105469 22.984375v56.191406h-32v-56h-16v56h-32c-13.230469 0-24 10.769531-24 24v16h-40v-64h-16v64h-40.839844l-7.015625-63.136719 4.734375-14.207031 16.738282 10.039062 9.429687-47.167968 41.945313 9.679687c18.253906 4.21875 31.007812 20.242188 31.007812 38.976563v9.816406h16v-9.816406c0-26.222656-17.847656-48.664063-43.40625-54.566406l-22.3125-5.144532 30.335938-9.105468c4.65625 6.046874 13.664062 14.632812 27.382812 14.632812s22.726562-8.585938 27.382812-14.632812zm-94.894531-27.023438v-8.160156c5.070312 1.519531 10.441406 2.359375 16 2.359375s10.929688-.839844 16-2.359375v8.152344c-1.984375 3.070312-7.496094 10.207031-16 10.207031-8.519531 0-14.039062-7.167969-16-10.199219zm16-125.800781c22.054688 0 40 17.945312 40 40h-36.6875c-5.082031 0-10.066406-2.0625-13.65625-5.65625l-5.65625-5.65625-5.65625 5.65625c-3.589844 3.59375-8.574219 5.65625-13.65625 5.65625h-4.6875c0-22.054688 17.945312-40 40-40zm-40 56h4.6875c6.96875 0 13.625-2 19.3125-5.734375 5.6875 3.734375 12.34375 5.734375 19.3125 5.734375h36.6875v8c0 22.054688-17.945312 40-40 40s-40-17.945312-40-40zm-12.097656 28.414062c4.074218 10.347657 11.105468 19.195313 20.097656 25.480469v12.152344l-51.488281 15.449219c-1.695313.503906-3.34375 1.160156-4.953125 1.886718l-7.558594-1.742187v-15.761719c8.550781-6.871094 15.289062-15.894531 19.425781-26.238281 9.214844-.808594 17.855469-4.730469 24.476563-11.226563zm-20.246094-5.804687c.222656-2.175781.34375-4.378906.34375-6.609375v-38.28125c8.609375 3.265625 15.015625 10.839844 15.878906 19.890625.65625 6.878906-1.511718 13.460937-6.117187 18.527344-2.761719 3.046875-6.28125 5.175781-10.105469 6.472656zm16.34375-85.3125v31.382813c-7.078125-5.359376-15.871094-8.679688-25.375-8.679688h-9.679688l-9.839843-19.679688-7.539063 5.023438c-14.390625 9.59375-31.125 14.65625-48.40625 14.65625h-33.785156c-9.503906 0-18.296875 3.320312-25.375 8.679688v-11.832032c0-42.367187 34.480469-76.847656 76.847656-76.847656 20.527344 0 39.832032 7.992188 54.34375 22.503906l8.488282 8.488282 1.792968.601562c11.078125 3.695312 18.527344 14.023438 18.527344 25.703125zm56-185.296875c22.054688 0 40 17.945312 40 40h-4.6875c-5.082031 0-10.066406-2.0625-13.65625-5.65625l-5.65625-5.65625-5.65625 5.65625c-3.589844 3.59375-8.574219 5.65625-13.65625 5.65625h-36.6875c0-22.054688 17.945312-40 40-40zm16 125.800781c-1.984375 3.0625-7.496094 10.199219-16 10.199219-8.519531 0-14.039062-7.167969-16-10.199219v-8.160156c5.070312 1.519531 10.441406 2.359375 16 2.359375s10.929688-.839844 16-2.359375zm-16-21.800781c-22.054688 0-40-17.945312-40-40v-8h36.6875c6.96875 0 13.625-2 19.3125-5.734375 5.6875 3.734375 12.34375 5.734375 19.3125 5.734375h4.6875v8c0 22.054688-17.945312 40-40 40zm-184-104h-16v-16h16zm-16 16h16v88h-16zm128-16h-16v-16h16zm-16 16h16v88h-16zm-64 56h-16v-56h16zm-16 16h16v16h-16zm64-16h-16v-56h16zm-16 16h16v16h-16zm0 0" fill="url(#a)"/></svg>